<svg xmlns="http://www.w3.org/2000/svg" xmlns:xlink="http://www.w3.org/1999/xlink" width="500" zoomAndPan="magnify" viewBox="0 0 375 374.999991" height="500" preserveAspectRatio="xMidYMid meet" version="1.0"><defs><g/><clipPath id="99aecab50a"><path d="M 218 162 L 304.996094 162 L 304.996094 230 L 218 230 Z M 218 162 " clip-rule="nonzero"/></clipPath><clipPath id="eb3e855fba"><path d="M 70.246094 235 L 217 235 L 217 288 L 70.246094 288 Z M 70.246094 235 " clip-rule="nonzero"/></clipPath></defs><path fill="#545454" d="M 90.96875 129.5 C 91.449219 128.96875 91.992188 128.488281 92.585938 128.054688 C 93.1875 127.632812 93.847656 127.28125 94.554688 127.015625 C 94.910156 126.886719 95.277344 126.78125 95.65625 126.707031 C 95.84375 126.664062 96.035156 126.640625 96.226562 126.621094 C 96.417969 126.589844 96.609375 126.578125 96.804688 126.574219 C 97.191406 126.554688 97.582031 126.585938 97.96875 126.625 L 98.542969 126.714844 L 99.105469 126.855469 C 99.296875 126.898438 99.476562 126.96875 99.660156 127.03125 C 99.839844 127.09375 100.023438 127.152344 100.195312 127.238281 L 100.71875 127.476562 C 100.890625 127.5625 101.050781 127.660156 101.21875 127.75 C 101.558594 127.925781 101.859375 128.148438 102.171875 128.355469 C 102.480469 128.570312 102.765625 128.8125 103.0625 129.039062 C 103.339844 129.285156 103.609375 129.539062 103.878906 129.789062 L 103.925781 129.835938 L 103.972656 129.789062 L 104.789062 129.039062 C 105.085938 128.8125 105.367188 128.570312 105.679688 128.355469 C 105.992188 128.148438 106.292969 127.921875 106.632812 127.75 C 106.800781 127.65625 106.960938 127.558594 107.132812 127.476562 L 107.65625 127.234375 C 107.828125 127.152344 108.011719 127.09375 108.191406 127.027344 C 108.375 126.96875 108.554688 126.894531 108.742188 126.851562 L 109.308594 126.714844 L 109.882812 126.621094 C 110.269531 126.582031 110.660156 126.550781 111.046875 126.574219 C 111.242188 126.574219 111.433594 126.585938 111.625 126.617188 C 111.816406 126.640625 112.007812 126.660156 112.195312 126.707031 C 112.570312 126.777344 112.941406 126.882812 113.296875 127.011719 C 114.007812 127.277344 114.667969 127.632812 115.265625 128.050781 C 115.859375 128.484375 116.40625 128.96875 116.886719 129.5 C 117.363281 130.035156 117.792969 130.605469 118.128906 131.226562 C 117.621094 130.738281 117.085938 130.296875 116.527344 129.898438 C 116.242188 129.707031 115.964844 129.511719 115.671875 129.34375 C 115.382812 129.167969 115.085938 129.011719 114.785156 128.871094 C 114.1875 128.582031 113.566406 128.359375 112.9375 128.230469 C 112.625 128.171875 112.3125 128.117188 112 128.097656 C 111.84375 128.078125 111.683594 128.082031 111.53125 128.078125 C 111.375 128.074219 111.21875 128.078125 111.0625 128.097656 C 110.753906 128.109375 110.449219 128.164062 110.144531 128.222656 L 109.695312 128.335938 L 109.257812 128.480469 C 109.105469 128.523438 108.964844 128.597656 108.824219 128.65625 C 108.679688 128.722656 108.535156 128.773438 108.398438 128.851562 L 107.980469 129.074219 C 107.84375 129.148438 107.710938 129.242188 107.574219 129.324219 C 107.304688 129.484375 107.050781 129.683594 106.789062 129.871094 C 106.53125 130.0625 106.289062 130.28125 106.039062 130.488281 L 105.324219 131.15625 L 104.644531 131.875 L 103.925781 132.636719 L 103.207031 131.875 L 102.527344 131.15625 L 101.8125 130.484375 C 101.5625 130.28125 101.320312 130.058594 101.0625 129.871094 C 100.800781 129.683594 100.550781 129.480469 100.277344 129.320312 C 100.140625 129.238281 100.011719 129.148438 99.871094 129.070312 L 99.457031 128.851562 C 99.316406 128.769531 99.171875 128.71875 99.03125 128.65625 C 98.886719 128.59375 98.746094 128.523438 98.597656 128.480469 L 98.15625 128.332031 L 97.707031 128.222656 C 97.402344 128.164062 97.097656 128.105469 96.789062 128.09375 C 96.632812 128.078125 96.476562 128.070312 96.320312 128.078125 C 96.167969 128.078125 96.011719 128.074219 95.851562 128.09375 C 95.539062 128.113281 95.226562 128.167969 94.914062 128.226562 C 94.285156 128.355469 93.664062 128.578125 93.066406 128.867188 C 92.765625 129.011719 92.46875 129.164062 92.179688 129.339844 C 91.882812 129.511719 91.609375 129.707031 91.324219 129.898438 C 90.765625 130.296875 90.230469 130.738281 89.722656 131.226562 C 90.058594 130.605469 90.492188 130.035156 90.96875 129.5 " fill-opacity="1" fill-rule="nonzero"/><path fill="#545454" d="M 81.4375 112.789062 C 81.878906 112.5625 82.347656 112.390625 82.835938 112.261719 C 83.324219 112.140625 83.835938 112.078125 84.359375 112.085938 C 84.617188 112.089844 84.882812 112.117188 85.140625 112.164062 C 85.273438 112.179688 85.398438 112.214844 85.53125 112.25 C 85.660156 112.277344 85.785156 112.320312 85.910156 112.367188 C 86.164062 112.449219 86.40625 112.566406 86.644531 112.6875 L 86.992188 112.886719 L 87.316406 113.117188 C 87.429688 113.191406 87.527344 113.285156 87.625 113.367188 C 87.726562 113.453125 87.832031 113.539062 87.921875 113.636719 L 88.195312 113.917969 C 88.285156 114.015625 88.363281 114.117188 88.449219 114.21875 C 88.621094 114.414062 88.761719 114.632812 88.910156 114.847656 C 89.054688 115.0625 89.175781 115.285156 89.308594 115.507812 C 89.425781 115.734375 89.535156 115.960938 89.648438 116.191406 L 89.664062 116.234375 L 89.707031 116.214844 L 90.417969 115.9375 C 90.664062 115.867188 90.90625 115.78125 91.160156 115.71875 C 91.414062 115.664062 91.660156 115.59375 91.921875 115.570312 C 92.050781 115.550781 92.179688 115.53125 92.3125 115.515625 L 92.707031 115.496094 C 92.835938 115.484375 92.972656 115.492188 93.101562 115.496094 C 93.234375 115.503906 93.367188 115.5 93.5 115.519531 L 93.898438 115.570312 L 94.289062 115.65625 C 94.546875 115.726562 94.804688 115.804688 95.046875 115.914062 C 95.171875 115.964844 95.292969 116.019531 95.40625 116.085938 C 95.523438 116.148438 95.640625 116.210938 95.75 116.289062 C 95.976562 116.425781 96.1875 116.585938 96.378906 116.757812 C 96.769531 117.105469 97.105469 117.496094 97.386719 117.917969 C 97.65625 118.34375 97.886719 118.785156 98.0625 119.246094 C 98.234375 119.710938 98.371094 120.183594 98.429688 120.667969 C 98.226562 120.226562 97.992188 119.808594 97.734375 119.414062 C 97.597656 119.222656 97.46875 119.027344 97.324219 118.84375 C 97.183594 118.660156 97.03125 118.488281 96.871094 118.320312 C 96.558594 117.988281 96.21875 117.6875 95.847656 117.449219 C 95.660156 117.332031 95.472656 117.21875 95.277344 117.128906 C 95.183594 117.078125 95.082031 117.042969 94.980469 117.003906 C 94.882812 116.960938 94.78125 116.925781 94.679688 116.894531 C 94.476562 116.828125 94.265625 116.789062 94.058594 116.75 L 93.742188 116.707031 L 93.421875 116.691406 C 93.316406 116.683594 93.207031 116.695312 93.101562 116.695312 C 92.992188 116.703125 92.886719 116.699219 92.78125 116.714844 L 92.457031 116.753906 C 92.351562 116.769531 92.242188 116.792969 92.132812 116.816406 C 91.921875 116.847656 91.707031 116.914062 91.496094 116.96875 C 91.28125 117.023438 91.070312 117.109375 90.859375 117.175781 L 90.234375 117.429688 L 89.617188 117.722656 L 88.96875 118.027344 L 88.695312 117.363281 L 88.4375 116.730469 L 88.148438 116.121094 C 88.039062 115.929688 87.9375 115.726562 87.820312 115.539062 C 87.699219 115.355469 87.585938 115.164062 87.453125 114.992188 C 87.386719 114.90625 87.324219 114.8125 87.257812 114.730469 L 87.042969 114.484375 C 86.972656 114.402344 86.894531 114.332031 86.820312 114.253906 C 86.742188 114.179688 86.671875 114.097656 86.585938 114.035156 L 86.339844 113.828125 L 86.078125 113.644531 C 85.898438 113.53125 85.714844 113.421875 85.519531 113.335938 C 85.425781 113.285156 85.328125 113.242188 85.226562 113.210938 C 85.125 113.167969 85.027344 113.128906 84.921875 113.101562 C 84.714844 113.039062 84.503906 112.992188 84.285156 112.953125 C 83.851562 112.878906 83.394531 112.867188 82.941406 112.90625 C 82.710938 112.917969 82.480469 112.945312 82.253906 112.984375 C 82.023438 113.019531 81.796875 113.078125 81.566406 113.128906 C 81.109375 113.246094 80.652344 113.394531 80.207031 113.585938 C 80.578125 113.269531 80.996094 113.011719 81.4375 112.789062 " fill-opacity="1" fill-rule="nonzero"/><path fill="#545454" d="M 212.851562 143.914062 C 207.261719 107.988281 173.609375 83.394531 137.6875 88.984375 C 132.003906 89.867188 126.605469 91.453125 121.566406 93.640625 C 128.195312 89.941406 135.578125 87.335938 143.519531 86.101562 C 179.441406 80.515625 213.09375 105.105469 218.683594 141.03125 C 223.386719 171.273438 206.703125 199.902344 179.875 211.539062 C 203.242188 198.503906 217.203125 171.898438 212.851562 143.914062 " fill-opacity="1" fill-rule="nonzero"/><path fill="#545454" d="M 239.042969 220.695312 C 239.042969 220.695312 235.917969 221.011719 231.359375 223.160156 L 218.246094 233.78125 C 218.246094 233.78125 220.160156 233.914062 227.117188 230.210938 C 234.074219 226.507812 239.042969 220.695312 239.042969 220.695312 " fill-opacity="1" fill-rule="nonzero"/><g clip-path="url(#99aecab50a)"><path fill="#545454" d="M 275.433594 182.542969 L 294.902344 162.820312 C 291.765625 163.84375 288.050781 165.960938 283.875 169.96875 C 280.371094 173.332031 275.90625 177.621094 271.117188 182.222656 L 246.03125 186.667969 C 244.5625 186.925781 243.195312 187.601562 242.089844 188.609375 L 236.855469 193.371094 L 259.484375 193.394531 C 247.425781 204.980469 236.453125 215.539062 236.039062 215.984375 C 234.503906 216.703125 232.707031 216.527344 231.332031 215.53125 L 221.023438 208.046875 L 218.476562 210.617188 L 227.332031 224.429688 C 228.734375 223.628906 230.410156 222.738281 231.929688 221.957031 L 262.917969 193.417969 L 269.328125 194.117188 L 237.976562 220.535156 L 255.113281 208.21875 L 230.6875 229.40625 L 235.601562 229 C 236.679688 228.90625 237.710938 228.53125 238.589844 227.898438 L 244.113281 223.957031 C 244.6875 223.527344 260.613281 210.277344 275.785156 197.640625 L 301.554688 210.847656 L 301.414062 209.980469 C 300.988281 207.410156 299.875 205.007812 298.183594 203.03125 L 286.179688 188.984375 C 289.5625 186.167969 292.679688 183.570312 295.292969 181.394531 C 302.109375 175.710938 304.269531 170.734375 304.675781 167.101562 C 304.738281 166.546875 304.734375 165.988281 304.679688 165.433594 L 282.445312 182.34375 L 275.433594 182.542969 " fill-opacity="1" fill-rule="nonzero"/></g><path fill="#545454" d="M 247.90625 210.421875 L 246.34375 211.878906 L 245.605469 211.074219 L 247.171875 209.617188 L 247.90625 210.421875 " fill-opacity="1" fill-rule="nonzero"/><path fill="#545454" d="M 251.207031 207.34375 L 249.644531 208.800781 L 248.90625 208 L 250.46875 206.542969 L 251.207031 207.34375 " fill-opacity="1" fill-rule="nonzero"/><path fill="#545454" d="M 254.503906 204.269531 L 252.941406 205.726562 L 252.207031 204.921875 L 253.769531 203.464844 L 254.503906 204.269531 " fill-opacity="1" fill-rule="nonzero"/><path fill="#545454" d="M 257.804688 201.191406 L 256.242188 202.648438 L 255.503906 201.84375 L 257.070312 200.390625 L 257.804688 201.191406 " fill-opacity="1" fill-rule="nonzero"/><path fill="#545454" d="M 261.105469 198.117188 L 259.542969 199.574219 L 258.804688 198.769531 L 260.367188 197.3125 L 261.105469 198.117188 " fill-opacity="1" fill-rule="nonzero"/><path fill="#545454" d="M 264.402344 195.039062 L 262.84375 196.496094 L 262.105469 195.691406 L 263.667969 194.234375 L 264.402344 195.039062 " fill-opacity="1" fill-rule="nonzero"/><path fill="#545454" d="M 280.902344 179.65625 L 279.339844 181.113281 L 278.601562 180.3125 L 280.164062 178.855469 L 280.902344 179.65625 " fill-opacity="1" fill-rule="nonzero"/><path fill="#545454" d="M 284.203125 176.582031 L 282.640625 178.039062 L 281.902344 177.234375 L 283.464844 175.777344 L 284.203125 176.582031 " fill-opacity="1" fill-rule="nonzero"/><path fill="#545454" d="M 287.5 173.503906 L 285.9375 174.960938 L 285.199219 174.160156 L 286.765625 172.703125 L 287.5 173.503906 " fill-opacity="1" fill-rule="nonzero"/><path fill="#545454" d="M 290.800781 170.429688 L 289.238281 171.886719 L 288.5 171.082031 L 290.0625 169.625 L 290.800781 170.429688 " fill-opacity="1" fill-rule="nonzero"/><path fill="#545454" d="M 301.882812 163.121094 C 301.882812 163.121094 297.410156 161.96875 296.589844 163.265625 C 295.765625 164.558594 291.277344 169.136719 291.277344 169.136719 L 301.882812 163.121094 " fill-opacity="1" fill-rule="nonzero"/><g clip-path="url(#eb3e855fba)"><path fill="#545454" d="M 187.550781 254.519531 C 170.023438 263.519531 151.371094 270.882812 132.035156 274.902344 C 122.148438 276.957031 111.9375 278.269531 101.847656 277.089844 C 94.75 276.257812 86.734375 274.671875 81.902344 268.902344 C 75.535156 261.292969 78.773438 250.1875 82.605469 242.191406 C 83.71875 239.867188 84.953125 237.550781 86.414062 235.421875 C 80.429688 242.128906 75.980469 248.773438 73.386719 254.992188 C 72.558594 256.980469 71.917969 258.925781 71.476562 260.8125 C 70.234375 266.136719 70.570312 271.023438 72.710938 275.199219 C 82.601562 294.449219 127.148438 291.292969 172.214844 268.148438 C 189.90625 259.0625 205.042969 248.25 216.3125 237.296875 C 207.652344 243.328125 197.992188 249.160156 187.550781 254.519531 " fill-opacity="1" fill-rule="nonzero"/></g><path fill="#545454" d="M 159.921875 149.359375 C 159.984375 149.042969 160.042969 148.730469 160.101562 148.429688 C 160.105469 148.425781 160.109375 148.425781 160.109375 148.425781 Z M 105.761719 171.253906 L 105.46875 169.796875 L 105.777344 170.273438 C 105.773438 170.558594 105.765625 170.886719 105.761719 171.253906 Z M 101.261719 158.003906 C 101.996094 159.074219 102.457031 159.933594 102.605469 160.234375 C 102.453125 159.929688 101.996094 159.070312 101.261719 158.003906 Z M 168.773438 129.902344 C 167.480469 131.125 166.621094 132.171875 166.339844 132.527344 C 166.617188 132.175781 167.476562 131.128906 168.773438 129.902344 Z M 191.050781 136.292969 L 186.859375 133.773438 C 191.335938 134.027344 197.070312 138.554688 197.070312 138.554688 C 197.070312 138.554688 183.675781 120 166.242188 132.652344 C 166.242188 132.652344 167.273438 131.597656 168.773438 129.902344 C 169.957031 128.78125 171.496094 127.515625 173.289062 126.503906 L 168.125 128.046875 L 177.765625 121.933594 C 177.585938 121.960938 177.386719 122.003906 177.175781 122.066406 L 172.867188 123.019531 C 172.769531 122.792969 173.816406 120.878906 175.351562 118.78125 C 177.078125 116.433594 179.417969 114.640625 182.015625 113.320312 C 182.175781 113.234375 182.332031 113.148438 182.484375 113.058594 C 182.4375 113.046875 182.390625 113.039062 182.34375 113.027344 C 182.53125 113.023438 182.640625 113.023438 182.640625 113.023438 C 182.535156 113.019531 182.433594 113.019531 182.324219 113.023438 C 178.800781 112.242188 174.457031 113.800781 171.621094 115.800781 C 165.328125 120.082031 162.34375 127.671875 162.34375 127.671875 C 162.957031 124.199219 164.324219 111.859375 153.789062 107.816406 L 156.320312 112.804688 L 154.46875 110.59375 C 154.46875 110.59375 158.421875 120.023438 158.046875 121.480469 L 155.640625 117.46875 C 155.640625 117.46875 158.285156 124.703125 157.605469 128.882812 C 157.605469 128.882812 150.4375 117.300781 139.90625 115.6875 C 139.90625 115.6875 143.859375 118.859375 145.035156 121.441406 L 141.445312 118.707031 L 146.769531 124.863281 L 143.582031 122.898438 L 145.234375 126.144531 C 145.234375 126.144531 141.011719 123.027344 137.773438 126.253906 C 137.773438 126.253906 141.394531 125.855469 143.976562 128.007812 L 138.832031 126.96875 L 145.671875 129.765625 L 142.535156 129.46875 C 142.535156 129.46875 148.488281 130.765625 149.234375 131.886719 L 145.253906 131.296875 L 150.765625 135.023438 L 153.480469 136.859375 C 151.199219 135.347656 132.707031 123.714844 123.761719 137.980469 C 123.761719 137.980469 127.066406 134.867188 131.492188 135.375 L 126.761719 138.136719 C 126.761719 138.136719 134.53125 134.738281 137.929688 134.992188 L 133.132812 138.46875 C 133.132812 138.46875 138.863281 135.722656 144.457031 136.3125 L 141.230469 137.339844 L 148.019531 137.894531 C 148.019531 137.894531 137.890625 138.015625 132.777344 147.761719 C 131.878906 149.382812 131.058594 151.296875 130.359375 153.546875 L 135.707031 149.207031 L 133.882812 152.773438 C 133.882812 152.773438 137.660156 147.015625 142.097656 144.785156 L 140.246094 148.46875 L 147.78125 142.265625 L 146.390625 144.683594 C 147.433594 144.308594 148.4375 144.179688 149.269531 144.507812 L 145.332031 148.054688 C 143.632812 149.582031 142.117188 151.316406 140.914062 153.261719 C 138.25 157.566406 136.671875 163.0625 138.675781 169.503906 C 138.675781 169.503906 140.058594 160.761719 143.277344 158.175781 L 141.910156 164.03125 C 141.910156 164.03125 145.003906 154.429688 148.117188 151.285156 L 146.8125 156.675781 L 151.171875 148.449219 L 150.484375 151.851562 C 150.484375 151.851562 152.714844 145.03125 157.992188 143.308594 C 157.882812 143.832031 157.757812 144.410156 157.617188 145.042969 C 157.527344 145.429688 157.425781 145.839844 157.328125 146.269531 C 157.273438 146.484375 157.222656 146.703125 157.167969 146.925781 C 157.109375 147.148438 157.050781 147.375 156.992188 147.609375 C 156.871094 148.074219 156.742188 148.558594 156.613281 149.0625 C 156.472656 149.558594 156.328125 150.078125 156.175781 150.609375 C 155.71875 152.183594 155.195312 153.894531 154.585938 155.71875 L 150.367188 167.039062 C 149.328125 169.617188 148.203125 172.300781 147.035156 175.066406 C 145.699219 178.226562 144.3125 181.496094 142.941406 184.851562 C 141.574219 188.207031 140.238281 191.660156 139.007812 195.171875 C 138.691406 196.046875 138.40625 196.9375 138.109375 197.820312 C 137.820312 198.707031 137.539062 199.597656 137.261719 200.488281 C 137.128906 200.9375 136.996094 201.382812 136.863281 201.828125 L 136.664062 202.5 L 136.476562 203.171875 C 136.351562 203.621094 136.226562 204.070312 136.105469 204.519531 C 135.980469 204.964844 135.871094 205.429688 135.753906 205.886719 C 135.636719 206.34375 135.523438 206.800781 135.410156 207.253906 C 135.308594 207.691406 135.210938 208.125 135.109375 208.5625 C 135.058594 208.777344 135.007812 208.996094 134.960938 209.214844 L 134.921875 209.375 L 134.878906 209.582031 L 134.808594 209.917969 C 134.71875 210.363281 134.628906 210.808594 134.535156 211.25 C 134.34375 212.136719 134.1875 213.023438 134.023438 213.898438 C 133.945312 214.339844 133.855469 214.777344 133.785156 215.214844 C 133.714844 215.652344 133.640625 216.089844 133.570312 216.527344 C 133 220.003906 132.582031 223.394531 132.292969 226.628906 C 132.09375 228.796875 131.96875 230.890625 131.886719 232.890625 C 131.671875 233.074219 131.5625 233.167969 131.347656 233.351562 C 131 233.304688 130.644531 233.273438 130.28125 233.261719 C 130.28125 233.261719 130.878906 233.464844 131.8125 234.03125 C 131.78125 234.550781 131.75 235.066406 131.722656 235.570312 C 131.59375 237.984375 131.5625 240.230469 131.5625 242.273438 C 131 241.5 130.414062 240.675781 129.816406 239.792969 C 129.792969 238.253906 129.894531 236.703125 130.28125 235.628906 C 130.28125 235.628906 129.488281 236.511719 128.753906 238.207031 C 128.382812 237.628906 128.007812 237.039062 127.617188 236.4375 C 127.328125 235.964844 127.035156 235.480469 126.734375 234.992188 C 126.585938 234.746094 126.433594 234.5 126.28125 234.25 C 126.136719 234 125.988281 233.746094 125.839844 233.488281 C 125.542969 232.976562 125.242188 232.457031 124.9375 231.933594 C 124.644531 231.398438 124.347656 230.859375 124.050781 230.316406 C 123.898438 230.042969 123.75 229.769531 123.597656 229.492188 C 123.453125 229.214844 123.308594 228.933594 123.160156 228.648438 C 122.867188 228.085938 122.574219 227.515625 122.273438 226.941406 C 121.128906 224.617188 119.96875 222.195312 118.914062 219.675781 C 118.652344 219.046875 118.375 218.417969 118.117188 217.78125 C 117.863281 217.140625 117.613281 216.496094 117.359375 215.851562 C 117.234375 215.53125 117.105469 215.210938 116.980469 214.886719 C 116.851562 214.5625 116.742188 214.234375 116.621094 213.910156 C 116.382812 213.253906 116.148438 212.601562 115.910156 211.949219 C 115.664062 211.296875 115.457031 210.632812 115.234375 209.972656 C 115.019531 209.3125 114.800781 208.652344 114.582031 207.992188 C 114.167969 206.667969 113.785156 205.339844 113.382812 204.023438 C 113.027344 202.695312 112.675781 201.378906 112.324219 200.078125 C 112.015625 198.765625 111.707031 197.46875 111.40625 196.191406 C 111.125 194.910156 110.878906 193.644531 110.621094 192.40625 C 110.5625 192.09375 110.488281 191.789062 110.4375 191.480469 C 110.386719 191.171875 110.332031 190.867188 110.28125 190.5625 C 110.175781 189.953125 110.070312 189.351562 109.96875 188.757812 C 109.871094 188.164062 109.757812 187.578125 109.671875 186.996094 C 109.589844 186.417969 109.511719 185.847656 109.429688 185.285156 C 109.351562 184.722656 109.273438 184.167969 109.199219 183.625 C 109.15625 183.355469 109.121094 183.085938 109.082031 182.820312 C 109.046875 182.554688 109.023438 182.289062 108.992188 182.027344 C 108.878906 180.976562 108.769531 179.972656 108.664062 179.015625 C 108.636719 178.777344 108.609375 178.542969 108.585938 178.308594 C 108.558594 178.078125 108.535156 177.847656 108.519531 177.617188 C 108.484375 177.164062 108.453125 176.722656 108.417969 176.296875 C 108.351562 175.441406 108.289062 174.640625 108.234375 173.898438 C 108.207031 173.53125 108.167969 173.175781 108.15625 172.832031 C 108.144531 172.492188 108.128906 172.167969 108.113281 171.863281 C 108.089844 171.320312 108.066406 170.835938 108.046875 170.398438 C 111.382812 172.800781 111.980469 177.902344 111.980469 177.902344 L 111.980469 175.125 L 114.09375 182.265625 L 113.925781 177.832031 C 115.871094 180.789062 116.773438 188.808594 116.773438 188.808594 L 116.632812 184.003906 C 118.746094 186.539062 118.441406 193.613281 118.441406 193.613281 C 120.933594 189.058594 120.691406 184.667969 119.417969 180.960938 C 118.871094 179.375 117.558594 177 116.558594 175.65625 L 114.09375 172.332031 C 114.800781 172.207031 115.566406 172.464844 116.324219 172.925781 L 115.617188 170.8125 L 120.542969 176.867188 L 119.675781 173.6875 C 122.804688 176.140625 124.851562 181.253906 124.851562 181.253906 L 123.988281 178.167969 L 127.492188 182.417969 C 127.300781 180.539062 126.960938 178.910156 126.511719 177.496094 C 124.046875 169.042969 116.125 167.34375 116.125 167.34375 L 121.535156 167.988281 L 119.167969 166.667969 C 123.648438 167.09375 127.703125 170.152344 127.703125 170.152344 L 124.492188 166.667969 C 127.199219 167.007812 132.753906 170.902344 132.753906 170.902344 L 129.484375 167.988281 C 133.035156 168.289062 135.132812 171.253906 135.132812 171.253906 C 130.378906 158.652344 114.035156 164.84375 112.003906 165.667969 L 114.425781 164.660156 L 119.335938 162.609375 L 116.125 162.441406 C 116.882812 161.679688 121.757812 161.605469 121.757812 161.605469 L 119.253906 161.339844 L 125.058594 160.234375 L 120.859375 160.234375 C 123.226562 158.953125 126.003906 159.839844 126.003906 159.839844 C 123.972656 156.796875 120.167969 158.570312 120.167969 158.570312 L 121.976562 156.289062 L 119.167969 157.324219 L 124.316406 153.339844 L 121.070312 154.914062 C 122.402344 153.074219 126.003906 151.214844 126.003906 151.214844 C 117.488281 150.8125 110.035156 158.757812 110.035156 158.757812 C 110.160156 155.371094 113.382812 150.117188 113.382812 150.117188 L 110.859375 152.886719 C 110.796875 151.679688 115.390625 144.914062 115.390625 144.914062 L 113.585938 146.351562 L 116.363281 142.84375 C 107.460938 144.34375 106.578125 154.238281 106.507812 157.058594 C 106.507812 157.058594 105.371094 150.632812 101.113281 146.28125 C 99.207031 144.261719 96.050781 142.351562 93.15625 142.40625 C 93.078125 142.386719 92.992188 142.367188 92.914062 142.359375 C 92.914062 142.359375 92.996094 142.375 93.144531 142.40625 C 93.105469 142.40625 93.066406 142.40625 93.03125 142.410156 C 93.125 142.496094 93.226562 142.582031 93.328125 142.664062 C 95.226562 144.179688 96.820312 146.050781 97.820312 148.265625 C 98.632812 150.050781 99.101562 151.589844 98.992188 151.746094 L 95.765625 150.3125 C 95.609375 150.230469 95.460938 150.164062 95.320312 150.117188 L 101.917969 156.4375 L 98.113281 154.40625 C 99.355469 155.488281 100.363281 156.726562 101.113281 157.789062 C 102.019531 159.355469 102.664062 160.347656 102.664062 160.347656 C 90.996094 147.664062 77.550781 160.09375 77.550781 160.09375 C 77.550781 160.09375 82.765625 157.453125 86.316406 157.960938 L 82.632812 159.269531 C 82.632812 159.269531 91.261719 157.617188 93.925781 158.992188 L 88.367188 159.71875 C 88.367188 159.71875 96.878906 159.675781 98.871094 161.382812 L 95.679688 161.382812 C 99.179688 162.394531 101.648438 163.390625 101.648438 163.390625 C 78.058594 161.867188 82.117188 187.492188 82.117188 187.492188 C 82.117188 187.492188 83.714844 179.648438 85.683594 178.316406 L 84.289062 184.089844 C 84.289062 184.089844 87.457031 175.90625 90.375 173.496094 L 88.382812 179.113281 C 88.382812 179.113281 93.484375 170.136719 96.335938 168.804688 L 95.601562 172.300781 L 99.761719 167.917969 L 97.988281 170.371094 C 99.304688 169.339844 100.433594 168.511719 101.253906 167.929688 C 100.5625 168.441406 99.9375 168.957031 99.367188 169.480469 L 96.617188 173.941406 L 98.140625 173.519531 C 95.6875 176.222656 95.351562 180.875 95.351562 180.875 L 97.125 177.238281 C 95.265625 181.890625 96.605469 187.058594 96.605469 187.058594 L 97.039062 183.308594 C 96.882812 186.332031 98.859375 190.417969 98.859375 190.417969 L 100.394531 185.777344 C 100.394531 185.777344 100.132812 189.355469 100.394531 189.09375 C 100.65625 188.824219 102.679688 182.902344 102.761719 180.789062 C 102.761719 180.789062 102.703125 186.328125 102.761719 186.242188 C 102.820312 186.15625 103.863281 180.960938 103.863281 177.746094 L 104.972656 182.0625 L 104.972656 173.6875 C 104.972656 173.6875 105.34375 173.980469 105.722656 174.273438 C 105.722656 174.46875 105.730469 174.667969 105.730469 174.871094 C 105.742188 175.613281 105.753906 176.421875 105.769531 177.28125 C 105.777344 177.714844 105.785156 178.160156 105.789062 178.617188 C 105.789062 178.84375 105.800781 179.078125 105.8125 179.3125 C 105.824219 179.550781 105.835938 179.785156 105.847656 180.027344 C 105.890625 180.996094 105.941406 182.011719 105.992188 183.070312 C 106.003906 183.339844 106.011719 183.605469 106.035156 183.875 C 106.054688 184.148438 106.074219 184.417969 106.097656 184.695312 C 106.140625 185.246094 106.183594 185.808594 106.230469 186.378906 C 106.277344 186.949219 106.320312 187.53125 106.367188 188.121094 C 106.417969 188.710938 106.496094 189.308594 106.558594 189.914062 C 106.625 190.523438 106.691406 191.136719 106.761719 191.757812 C 106.792969 192.070312 106.828125 192.382812 106.863281 192.699219 C 106.898438 193.015625 106.949219 193.328125 106.992188 193.644531 C 107.175781 194.914062 107.34375 196.214844 107.550781 197.53125 C 107.777344 198.847656 108.007812 200.183594 108.242188 201.539062 C 108.515625 202.886719 108.792969 204.25 109.074219 205.625 C 109.394531 206.992188 109.703125 208.375 110.046875 209.753906 C 110.230469 210.441406 110.410156 211.132812 110.59375 211.824219 C 110.777344 212.511719 110.949219 213.207031 111.160156 213.890625 C 111.359375 214.578125 111.5625 215.261719 111.761719 215.949219 C 111.867188 216.292969 111.960938 216.636719 112.070312 216.976562 C 112.183594 217.316406 112.292969 217.65625 112.402344 217.996094 C 112.621094 218.675781 112.839844 219.351562 113.058594 220.027344 C 113.285156 220.699219 113.527344 221.367188 113.761719 222.03125 C 114.691406 224.703125 115.734375 227.285156 116.78125 229.773438 C 117.054688 230.390625 117.324219 231.003906 117.59375 231.609375 C 117.726562 231.914062 117.859375 232.214844 117.992188 232.515625 C 118.132812 232.8125 118.273438 233.109375 118.410156 233.402344 C 118.6875 233.992188 118.964844 234.574219 119.234375 235.152344 C 119.519531 235.71875 119.800781 236.28125 120.078125 236.839844 C 120.21875 237.117188 120.355469 237.390625 120.492188 237.664062 C 120.636719 237.933594 120.78125 238.207031 120.921875 238.472656 C 121.203125 239.007812 121.480469 239.53125 121.757812 240.046875 C 122.042969 240.558594 122.324219 241.0625 122.597656 241.558594 C 122.738281 241.804688 122.871094 242.050781 123.011719 242.289062 C 123.152344 242.527344 123.289062 242.765625 123.429688 243.003906 C 123.53125 243.179688 123.632812 243.351562 123.734375 243.527344 C 121.585938 241.664062 118.222656 239.46875 114.765625 240.101562 C 114.765625 240.101562 121.339844 241.941406 121.339844 246.410156 C 121.339844 246.410156 114.6875 241.941406 110.386719 248.777344 C 110.386719 248.777344 116.765625 245.359375 118.921875 248.25 C 119.613281 249.179688 120.164062 250.246094 120.59375 251.261719 C 119.136719 251.625 117.679688 251.984375 116.238281 252.34375 C 115.316406 252.570312 114.417969 252.777344 113.539062 252.964844 C 113.109375 253.058594 112.679688 253.148438 112.257812 253.230469 L 106.441406 253.878906 C 106.429688 253.882812 106.414062 253.882812 106.398438 253.882812 C 105.691406 253.875 105.019531 253.839844 104.386719 253.757812 C 103.765625 253.671875 103.179688 253.554688 102.625 253.398438 L 102.414062 253.34375 C 102.34375 253.324219 102.28125 253.292969 102.21875 253.269531 L 101.824219 253.121094 L 101.621094 253.050781 L 101.570312 253.035156 C 101.949219 253.277344 101.652344 253.089844 101.726562 253.140625 L 101.691406 253.121094 L 101.539062 253.039062 C 101.335938 252.929688 101.136719 252.824219 100.9375 252.714844 L 100.789062 252.632812 L 100.710938 252.59375 C 100.683594 252.578125 100.6875 252.578125 100.675781 252.570312 C 100.636719 252.546875 100.597656 252.527344 100.558594 252.503906 C 100.480469 252.460938 100.398438 252.421875 100.308594 252.382812 C 100.269531 252.371094 100.207031 252.316406 100.160156 252.28125 L 99.996094 252.171875 C 99.890625 252.097656 99.765625 252.039062 99.675781 251.953125 C 98.867188 251.332031 98.203125 250.589844 97.695312 249.675781 C 97.207031 248.757812 96.875 247.679688 96.726562 246.542969 C 96.578125 245.40625 96.601562 244.214844 96.765625 243.066406 C 96.925781 241.917969 97.222656 240.808594 97.589844 239.777344 C 97.96875 238.75 98.414062 237.796875 98.902344 236.9375 C 99.023438 236.726562 99.15625 236.523438 99.28125 236.320312 C 99.34375 236.21875 99.402344 236.117188 99.46875 236.015625 C 99.535156 235.921875 99.601562 235.828125 99.664062 235.734375 C 99.800781 235.542969 99.929688 235.359375 100.054688 235.179688 C 100.191406 235.003906 100.324219 234.835938 100.453125 234.667969 C 100.519531 234.585938 100.582031 234.503906 100.648438 234.421875 C 100.714844 234.34375 100.785156 234.269531 100.851562 234.195312 C 100.988281 234.046875 101.117188 233.898438 101.246094 233.757812 C 101.507812 233.480469 101.769531 233.230469 102.007812 232.984375 C 102.257812 232.761719 102.503906 232.558594 102.722656 232.363281 C 102.808594 232.289062 102.890625 232.226562 102.96875 232.164062 C 102.96875 232.164062 103.589844 231.71875 103.972656 231.445312 L 104.175781 231.296875 C 104.226562 231.257812 104.269531 231.230469 104.269531 231.230469 C 104.269531 231.230469 103.289062 231.296875 101.964844 231.535156 C 101.929688 231.542969 101.890625 231.546875 101.863281 231.550781 C 101.816406 231.558594 101.777344 231.570312 101.734375 231.578125 C 101.304688 231.660156 100.847656 231.761719 100.375 231.886719 C 100.367188 231.886719 100.359375 231.890625 100.351562 231.890625 C 99.863281 232.023438 99.371094 232.167969 98.894531 232.332031 C 97.074219 232.949219 95.34375 233.816406 93.757812 234.902344 C 90.523438 237.109375 87.988281 240.167969 86.199219 243.636719 C 82.855469 250.113281 79.636719 259.757812 84.78125 266.179688 C 84.832031 266.242188 84.882812 266.304688 84.933594 266.367188 C 88.828125 271.019531 95.898438 272.414062 102.304688 273.164062 C 104.683594 273.441406 107.191406 273.582031 109.757812 273.582031 C 110.964844 273.582031 112.199219 273.542969 113.453125 273.484375 L 113.480469 273.460938 C 132.597656 272.417969 157.589844 264.921875 182.015625 252.875 C 175.332031 252.292969 169.6875 250.582031 169.078125 250.378906 C 169.078125 250.378906 169.066406 250.382812 169.058594 250.386719 C 167.800781 249.984375 166.519531 249.601562 165.191406 249.269531 C 161.492188 248.371094 157.550781 247.773438 153.503906 247.449219 C 153.039062 247.410156 152.574219 247.375 152.109375 247.347656 C 154.613281 245 158.296875 242.773438 163.675781 241.679688 C 163.675781 241.679688 151.582031 242.992188 148.425781 246.410156 L 151.054688 240.363281 L 147.066406 244.570312 C 147.066406 244.570312 147.109375 232.734375 143.953125 231.683594 L 142.636719 243.519531 C 142.636719 243.519531 142.351562 242.792969 141.769531 241.730469 C 141.539062 239.851562 141.308594 237.785156 141.15625 235.542969 C 141.097656 234.753906 141.046875 233.941406 141 233.113281 C 140.945312 231.183594 140.929688 229.15625 140.984375 227.046875 C 141.054688 224.003906 141.234375 220.789062 141.550781 217.46875 C 141.589844 217.054688 141.632812 216.636719 141.671875 216.21875 C 141.710938 215.800781 141.769531 215.382812 141.816406 214.960938 C 141.914062 214.121094 142.007812 213.269531 142.132812 212.417969 C 142.191406 211.996094 142.25 211.566406 142.308594 211.136719 L 142.355469 210.816406 L 142.363281 210.734375 L 142.371094 210.695312 C 142.378906 210.644531 142.363281 210.714844 142.367188 210.695312 L 142.394531 210.53125 C 142.429688 210.308594 142.464844 210.089844 142.5 209.871094 C 142.570312 209.429688 142.644531 208.988281 142.714844 208.546875 C 142.792969 208.125 142.867188 207.703125 142.945312 207.277344 C 143.027344 206.855469 143.09375 206.4375 143.183594 206.007812 C 143.273438 205.578125 143.359375 205.148438 143.449219 204.714844 L 143.582031 204.066406 L 143.730469 203.421875 C 143.828125 202.988281 143.925781 202.554688 144.023438 202.121094 C 144.230469 201.257812 144.441406 200.390625 144.660156 199.523438 C 144.894531 198.65625 145.109375 197.785156 145.355469 196.921875 C 146.316406 193.457031 147.394531 190.003906 148.523438 186.605469 C 149.652344 183.210938 150.816406 179.867188 151.9375 176.625 C 153.0625 173.382812 154.140625 170.234375 155.113281 167.226562 C 156.089844 164.222656 156.957031 161.359375 157.695312 158.703125 C 158.429688 156.042969 159.023438 153.582031 159.5 151.394531 C 159.578125 151.023438 159.65625 150.664062 159.730469 150.308594 L 158.039062 158.683594 L 160.464844 153.671875 C 159.671875 157.609375 159.660156 164.234375 159.710938 164.351562 C 159.761719 164.472656 161.058594 157.671875 161.058594 157.671875 C 160.640625 160.285156 161.652344 168.039062 161.90625 168.429688 C 162.160156 168.820312 162.726562 164.371094 162.726562 164.371094 L 163.460938 170.433594 C 163.460938 170.433594 166.890625 165.917969 167.449219 162.175781 L 167.050781 166.878906 C 167.050781 166.878906 169.976562 160.875 168.847656 154.71875 L 170.121094 159.613281 C 170.121094 159.613281 170.859375 153.828125 168.523438 149.90625 L 170.285156 150.800781 L 168.019531 144.660156 C 167.449219 143.878906 166.8125 143.085938 166.089844 142.289062 C 166.949219 143.207031 168.132812 144.5 169.492188 146.089844 L 167.925781 142.644531 L 171.933594 149.042969 L 171.898438 144.578125 C 175.066406 146.917969 179.089844 159.179688 179.089844 159.179688 L 178.042969 151.804688 C 181.019531 155.476562 182.875 166.289062 182.875 166.289062 L 182.597656 158.871094 C 184.679688 160.988281 184.699219 170.992188 184.699219 170.992188 C 184.699219 170.992188 196.011719 140.605469 166.730469 136.632812 C 166.730469 136.632812 170 136.023438 174.539062 135.648438 L 170.628906 134.859375 C 173.492188 133.261719 183.910156 135.421875 183.910156 135.421875 L 177.28125 133.15625 C 180.882812 132.128906 191.050781 136.292969 191.050781 136.292969 " fill-opacity="1" fill-rule="nonzero"/><g fill="#000000" fill-opacity="1"><g transform="translate(177.169387, 280.188618)"><g><path d="M 5.046875 -13.40625 C 2.359375 -13.515625 2.359375 -13.515625 2.15625 -13.515625 C 1.609375 -13.515625 1.453125 -13.453125 1.3125 -13.25 C 1.015625 -12.828125 0.671875 -11.59375 0.671875 -11.015625 C 0.671875 -10.421875 0.921875 -10.3125 2.328125 -10.3125 L 3.421875 -10.3125 C 3.453125 -10.3125 3.578125 -10.3125 3.75 -10.28125 L 3.671875 -10.046875 C 2.265625 -5.46875 1.078125 -1.34375 1.078125 -0.984375 C 1.078125 -0.6875 1.28125 -0.53125 1.84375 -0.34375 C 2.3125 -0.203125 2.9375 -0.109375 3.453125 -0.109375 C 4.15625 -0.109375 4.328125 -0.265625 4.546875 -1.25 C 4.6875 -1.84375 5.078125 -3.28125 5.65625 -5.34375 C 6.671875 -9.046875 6.671875 -9.046875 6.671875 -9.21875 C 6.671875 -9.53125 6.265625 -9.859375 5.59375 -10.078125 C 5.46875 -10.125 5.34375 -10.15625 5.21875 -10.1875 C 5.203125 -10.203125 5.078125 -10.25 4.953125 -10.28125 C 5.21875 -10.3125 5.359375 -10.3125 5.515625 -10.3125 C 5.890625 -10.3125 5.890625 -10.3125 7 -10.25 C 8.265625 -10.15625 8.265625 -10.15625 8.359375 -10.15625 C 8.796875 -10.15625 9 -10.328125 9.1875 -10.8125 C 9.40625 -11.40625 9.65625 -12.359375 9.65625 -12.671875 C 9.65625 -12.9375 9.578125 -13.09375 9.390625 -13.15625 C 9.265625 -13.21875 9.265625 -13.21875 7.65625 -13.3125 Z M 5.046875 -13.40625 "/></g></g></g><g fill="#000000" fill-opacity="1"><g transform="translate(185.389572, 280.188618)"><g><path d="M 7.359375 -4.734375 C 8.359375 -5.265625 8.8125 -5.578125 9.328125 -6.0625 C 10.21875 -6.921875 10.796875 -8.28125 10.796875 -9.59375 C 10.796875 -11.9375 8.890625 -13.53125 6.09375 -13.53125 C 4.75 -13.53125 2.1875 -13.0625 1.796875 -12.75 C 1.484375 -12.484375 0.921875 -10.796875 0.921875 -10.15625 C 0.921875 -9.828125 1.0625 -9.671875 1.34375 -9.671875 C 1.65625 -9.671875 2.015625 -9.78125 2.59375 -10 C 2.28125 -8.8125 2.265625 -8.75 1.625 -6.59375 C 0.59375 -2.9375 0.140625 -1.1875 0.140625 -0.875 C 0.140625 -0.625 0.28125 -0.46875 0.671875 -0.328125 C 1.25 -0.109375 1.875 0.015625 2.515625 0.015625 C 2.953125 0.015625 3.125 -0.046875 3.265625 -0.203125 C 3.3125 -0.265625 3.421875 -0.671875 3.609375 -1.421875 L 4.21875 -3.9375 L 6.25 -0.25 C 7.09375 1.328125 7.09375 1.328125 7.40625 1.328125 C 7.71875 1.328125 8.34375 1.078125 8.953125 0.71875 C 9.546875 0.375 9.828125 0.046875 9.828125 -0.265625 C 9.828125 -0.515625 9.828125 -0.515625 9.328125 -1.375 Z M 3.515625 -10.1875 C 4.40625 -10.40625 5.015625 -10.484375 5.609375 -10.484375 C 6.671875 -10.484375 7.453125 -9.921875 7.453125 -9.140625 C 7.453125 -8.140625 6.3125 -7.09375 5.1875 -7.09375 L 5.078125 -7.09375 L 5.125 -7.265625 C 5.484375 -8.390625 5.609375 -8.828125 5.609375 -9.15625 C 5.609375 -9.625 5.328125 -9.8125 4.34375 -10.015625 C 4.140625 -10.0625 3.9375 -10.078125 3.75 -10.125 Z M 3.515625 -10.1875 "/></g></g></g><g fill="#000000" fill-opacity="1"><g transform="translate(196.241018, 280.188618)"><g><path d="M 4 -3.328125 L 4.921875 -3.328125 C 5.328125 -3.328125 5.609375 -3.65625 6.015625 -4.609375 L 5.859375 -1.71875 L 5.84375 -1.15625 C 5.84375 -0.34375 6.265625 -0.0625 7.53125 -0.0625 C 8.6875 -0.0625 9.015625 -0.34375 9.046875 -1.390625 C 9.046875 -1.578125 9.0625 -1.953125 9.078125 -2.53125 C 9.15625 -4.28125 9.25 -7.015625 9.25 -8.140625 C 9.25 -9.28125 9.15625 -11.71875 9.09375 -12.15625 C 9 -12.953125 8.828125 -13.125 8 -13.3125 C 7.3125 -13.46875 6.59375 -13.5625 6.28125 -13.5625 C 5.859375 -13.5625 5.65625 -13.453125 5.34375 -12.984375 C 5 -12.484375 3.671875 -10.0625 3.109375 -8.875 L 2.015625 -6.671875 C 1.125 -6.6875 0.984375 -6.65625 0.734375 -6.34375 C 0.40625 -5.953125 -0.046875 -4.40625 -0.046875 -3.734375 C -0.046875 -3.421875 0.0625 -3.328125 0.390625 -3.265625 L 0.046875 -2.46875 C -0.328125 -1.65625 -0.375 -1.546875 -0.375 -1.34375 C -0.375 -1.109375 -0.25 -0.890625 -0.015625 -0.734375 C 0.484375 -0.390625 1.40625 -0.078125 1.9375 -0.078125 C 2.390625 -0.078125 2.53125 -0.25 2.953125 -1.125 Z M 6.203125 -6.65625 L 5.34375 -6.65625 C 5.46875 -7.046875 5.515625 -7.125 5.8125 -7.9375 C 6 -8.40625 6.09375 -8.671875 6.40625 -9.515625 L 6.546875 -9.890625 C 6.53125 -9.6875 6.53125 -9.53125 6.515625 -9.484375 L 6.421875 -8.75 C 6.390625 -8.390625 6.359375 -8.3125 6.25 -6.984375 Z M 6.203125 -6.65625 "/></g></g></g><g fill="#000000" fill-opacity="1"><g transform="translate(206.643718, 280.188618)"><g><path d="M 4.484375 -12.21875 C 4.484375 -12.796875 4.390625 -13.015625 4.0625 -13.1875 C 3.734375 -13.328125 2.3125 -13.609375 1.859375 -13.609375 C 1.375 -13.609375 1.15625 -13.3125 1.15625 -12.609375 L 1.1875 -11.359375 L 1.15625 -7.84375 C 1.15625 -7 1.15625 -6.421875 1.203125 -5.28125 C 1.21875 -4.109375 1.25 -3.265625 1.25 -2.9375 C 1.265625 -0.921875 1.28125 -0.84375 1.65625 -0.65625 C 2.3125 -0.328125 3.328125 -0.046875 3.8125 -0.046875 C 4.140625 -0.046875 4.359375 -0.203125 4.625 -0.65625 C 6.265625 -3.359375 7.34375 -5.34375 8.40625 -7.546875 C 9.484375 -9.8125 10.421875 -12.15625 10.421875 -12.625 C 10.421875 -12.859375 10.25 -13.015625 9.859375 -13.1875 C 9.25 -13.421875 8.609375 -13.546875 8.015625 -13.546875 C 7.46875 -13.546875 7.28125 -13.359375 7.046875 -12.671875 C 6.546875 -11.28125 4.921875 -7.21875 4.1875 -5.609375 C 4.3125 -7 4.359375 -8.265625 4.46875 -11.734375 Z M 4.484375 -12.21875 "/></g></g></g><g fill="#000000" fill-opacity="1"><g transform="translate(216.026549, 280.188618)"><g><path d="M 9.0625 -10.046875 C 9.484375 -10.046875 9.6875 -10.15625 9.875 -10.546875 C 10.140625 -11.125 10.46875 -12.34375 10.46875 -12.828125 C 10.46875 -13.265625 10.265625 -13.390625 9.359375 -13.40625 C 9.28125 -13.40625 8.828125 -13.421875 8.34375 -13.46875 C 6.84375 -13.546875 5.984375 -13.5625 5.046875 -13.5625 C 2.890625 -13.5625 2.578125 -13.53125 2.359375 -13.3125 C 2.140625 -13.0625 1.546875 -11.125 1.546875 -10.65625 C 1.546875 -10.328125 1.8125 -10.203125 2.578125 -10.203125 L 2 -8.140625 C 1.28125 -8.140625 1.203125 -8.125 1.015625 -7.84375 C 0.734375 -7.390625 0.40625 -6.0625 0.40625 -5.421875 C 0.40625 -5.078125 0.546875 -4.953125 1.015625 -4.890625 L 0.53125 -2.78125 C 0.421875 -2.328125 0.421875 -2.328125 0.421875 -2.15625 C 0.421875 -1.75 0.71875 -1.21875 1.203125 -0.625 C 1.625 -0.125 1.890625 -0.0625 3.25 -0.0625 L 4.359375 -0.0625 L 6.28125 -0.015625 C 6.71875 -0.015625 6.9375 -0.109375 7.125 -0.28125 C 7.453125 -0.625 7.8125 -1.84375 7.8125 -2.515625 C 7.8125 -2.796875 7.6875 -3 7.484375 -3.046875 C 7.265625 -3.109375 6.796875 -3.125 5.421875 -3.140625 C 4.609375 -3.140625 4.390625 -3.140625 4 -3.15625 L 4.40625 -4.890625 C 4.875 -4.890625 6.28125 -4.859375 7.140625 -4.796875 L 7.65625 -4.78125 C 8.078125 -4.78125 8.25 -4.9375 8.515625 -5.578125 C 8.796875 -6.25 9.046875 -7.15625 9.046875 -7.59375 C 9.046875 -8.015625 8.890625 -8.0625 6.359375 -8.125 L 5.609375 -8.140625 L 5.421875 -8.140625 C 5.578125 -8.546875 5.71875 -9.1875 5.71875 -9.328125 C 5.71875 -9.53125 5.609375 -9.609375 4.84375 -10 C 4.78125 -10.015625 4.59375 -10.09375 4.40625 -10.203125 C 5.953125 -10.15625 7.25 -10.125 8.28125 -10.0625 Z M 9.0625 -10.046875 "/></g></g></g><g fill="#000000" fill-opacity="1"><g transform="translate(225.817339, 280.188618)"><g><path d="M 6.6875 -3.53125 C 5.390625 -3.484375 5.21875 -3.484375 4.59375 -3.484375 C 4.125 -3.484375 4.015625 -3.484375 3.71875 -3.53125 C 4.015625 -4.875 5.140625 -9.046875 5.78125 -11 C 6.140625 -12.203125 6.203125 -12.453125 6.203125 -12.6875 C 6.203125 -12.859375 6.125 -12.984375 5.953125 -13.0625 C 5.46875 -13.328125 4.3125 -13.609375 3.71875 -13.609375 C 3.078125 -13.609375 3 -13.53125 2.671875 -12.40625 C 2.53125 -11.921875 2.421875 -11.53125 2.34375 -11.21875 C 0.65625 -5.515625 0.140625 -3.546875 0.140625 -2.84375 C 0.140625 -2.515625 0.3125 -2.1875 0.890625 -1.25 C 1.421875 -0.421875 1.734375 -0.15625 2.203125 -0.109375 C 2.21875 -0.109375 3 -0.078125 4.546875 -0.0625 C 6.40625 -0.0625 6.453125 -0.0625 6.71875 -0.40625 C 7.015625 -0.796875 7.546875 -2.515625 7.546875 -3.109375 C 7.546875 -3.421875 7.40625 -3.53125 6.984375 -3.53125 Z M 6.6875 -3.53125 "/></g></g></g><g fill="#000000" fill-opacity="1"><g transform="translate(233.976321, 280.188618)"><g/></g></g><g fill="#000000" fill-opacity="1"><g transform="translate(239.075681, 280.188618)"><g><path d="M 6.328125 -4.078125 C 5.890625 -3.390625 5 -2.859375 4.328125 -2.859375 C 3.625 -2.859375 3.1875 -3.328125 3.1875 -4.046875 C 3.1875 -5.015625 3.9375 -5.84375 5.203125 -6.203125 C 5.75 -6.359375 5.875 -6.453125 6.09375 -6.9375 C 6.390625 -7.515625 6.6875 -8.40625 6.6875 -8.65625 C 6.6875 -8.78125 6.609375 -8.859375 6.484375 -8.890625 C 6 -9.0625 6 -9.0625 5.875 -9.140625 C 5.6875 -9.28125 5.578125 -9.546875 5.578125 -9.8125 C 5.578125 -10.421875 6.125 -11 6.6875 -11 C 7.203125 -11 7.46875 -10.6875 7.46875 -10.125 C 7.46875 -9.734375 7.625 -9.609375 8.140625 -9.609375 C 8.6875 -9.609375 9.6875 -9.796875 9.9375 -9.9375 C 10.140625 -10.078125 10.265625 -10.453125 10.265625 -10.9375 C 10.265625 -12.515625 8.8125 -13.65625 6.84375 -13.65625 C 4.578125 -13.65625 2.625 -11.921875 2.625 -9.890625 C 2.625 -9.25 2.796875 -8.734375 3.25 -8.078125 C 1.46875 -7.546875 0.140625 -5.6875 0.140625 -3.75 C 0.140625 -1.59375 1.796875 -0.0625 4.1875 -0.0625 C 5.78125 -0.0625 7.046875 -0.59375 8.203125 -1.71875 C 8.796875 -2.28125 9.25 -2.984375 9.25 -3.328125 C 9.25 -3.484375 9.140625 -3.609375 8.875 -3.78125 C 8.78125 -3.84375 8.6875 -3.875 8.609375 -3.9375 C 8.578125 -3.9375 8.484375 -4 8.359375 -4.078125 C 8.78125 -4.109375 9 -4.125 9.34375 -4.125 C 9.78125 -4.125 9.921875 -4.1875 10.078125 -4.34375 C 10.28125 -4.609375 10.65625 -5.8125 10.65625 -6.265625 C 10.65625 -6.40625 10.578125 -6.546875 10.46875 -6.59375 C 10.25 -6.671875 9.046875 -6.75 7.75 -6.75 C 6.6875 -6.75 6.484375 -6.671875 6.15625 -6.203125 C 5.859375 -5.734375 5.421875 -4.65625 5.421875 -4.34375 C 5.421875 -4.140625 5.546875 -4.078125 5.890625 -4.078125 Z M 6.328125 -4.078125 "/></g></g></g><g fill="#000000" fill-opacity="1"><g transform="translate(250.396275, 280.188618)"><g/></g></g><g fill="#000000" fill-opacity="1"><g transform="translate(255.495635, 280.188618)"><g><path d="M 5.046875 -13.40625 C 2.359375 -13.515625 2.359375 -13.515625 2.15625 -13.515625 C 1.609375 -13.515625 1.453125 -13.453125 1.3125 -13.25 C 1.015625 -12.828125 0.671875 -11.59375 0.671875 -11.015625 C 0.671875 -10.421875 0.921875 -10.3125 2.328125 -10.3125 L 3.421875 -10.3125 C 3.453125 -10.3125 3.578125 -10.3125 3.75 -10.28125 L 3.671875 -10.046875 C 2.265625 -5.46875 1.078125 -1.34375 1.078125 -0.984375 C 1.078125 -0.6875 1.28125 -0.53125 1.84375 -0.34375 C 2.3125 -0.203125 2.9375 -0.109375 3.453125 -0.109375 C 4.15625 -0.109375 4.328125 -0.265625 4.546875 -1.25 C 4.6875 -1.84375 5.078125 -3.28125 5.65625 -5.34375 C 6.671875 -9.046875 6.671875 -9.046875 6.671875 -9.21875 C 6.671875 -9.53125 6.265625 -9.859375 5.59375 -10.078125 C 5.46875 -10.125 5.34375 -10.15625 5.21875 -10.1875 C 5.203125 -10.203125 5.078125 -10.25 4.953125 -10.28125 C 5.21875 -10.3125 5.359375 -10.3125 5.515625 -10.3125 C 5.890625 -10.3125 5.890625 -10.3125 7 -10.25 C 8.265625 -10.15625 8.265625 -10.15625 8.359375 -10.15625 C 8.796875 -10.15625 9 -10.328125 9.1875 -10.8125 C 9.40625 -11.40625 9.65625 -12.359375 9.65625 -12.671875 C 9.65625 -12.9375 9.578125 -13.09375 9.390625 -13.15625 C 9.265625 -13.21875 9.265625 -13.21875 7.65625 -13.3125 Z M 5.046875 -13.40625 "/></g></g></g><g fill="#000000" fill-opacity="1"><g transform="translate(263.71582, 280.188618)"><g><path d="M 7.09375 -12.046875 C 7.25 -12.6875 7.28125 -12.953125 7.28125 -13.265625 C 7.28125 -13.625 7.09375 -13.78125 6.65625 -13.78125 C 5.8125 -13.78125 4.71875 -13.3125 3.75 -12.5625 C 1.71875 -10.953125 0.34375 -7.859375 0.34375 -4.84375 C 0.34375 -3.203125 0.8125 -1.890625 1.75 -0.953125 C 2.46875 -0.25 3.40625 0.15625 4.328125 0.15625 C 5.796875 0.15625 7.28125 -0.6875 8.484375 -2.21875 C 9.75 -3.859375 10.71875 -6.984375 10.71875 -9.546875 C 10.71875 -11.796875 10.0625 -13.625 9.25 -13.625 C 8.9375 -13.625 8.78125 -13.515625 7.390625 -12.28125 Z M 6.921875 -11.1875 C 7.078125 -10.578125 7.140625 -10.140625 7.140625 -9.390625 C 7.140625 -6.484375 5.921875 -3.46875 4.734375 -3.46875 C 4.21875 -3.46875 3.8125 -4.140625 3.8125 -5 C 3.8125 -5.859375 4.078125 -6.953125 4.515625 -7.953125 C 4.953125 -8.984375 5.484375 -9.625 6.21875 -10.09375 C 6.546875 -10.3125 6.546875 -10.328125 6.625 -10.40625 C 6.71875 -10.515625 6.734375 -10.546875 6.84375 -10.890625 C 6.84375 -10.953125 6.875 -11.0625 6.921875 -11.1875 Z M 6.921875 -11.1875 "/></g></g></g><g fill="#000000" fill-opacity="1"><g transform="translate(274.750845, 280.188618)"><g><path d="M 10.984375 -11.65625 C 11.125 -12.1875 11.140625 -12.328125 11.140625 -12.515625 C 11.140625 -13.1875 10.53125 -13.453125 8.984375 -13.453125 C 8.59375 -13.453125 8.40625 -13.390625 8.21875 -13.25 C 8.0625 -13.078125 8.0625 -13.078125 7.8125 -12.25 L 6.1875 -6.125 C 5.9375 -5.203125 5.78125 -4.671875 5.65625 -4.40625 C 5.40625 -3.890625 5.09375 -3.625 4.71875 -3.625 C 4.25 -3.625 3.890625 -3.984375 3.890625 -4.453125 C 3.890625 -4.6875 4 -5.21875 4.140625 -5.84375 L 5.625 -12.015625 C 5.78125 -12.65625 5.796875 -12.71875 5.796875 -12.828125 C 5.796875 -13.046875 5.671875 -13.1875 5.40625 -13.3125 C 4.9375 -13.484375 4.28125 -13.625 3.78125 -13.625 C 2.796875 -13.625 2.59375 -13.46875 2.359375 -12.46875 C 2.3125 -12.203125 2.25 -11.9375 2.1875 -11.65625 L 0.921875 -6.421875 C 0.578125 -4.953125 0.515625 -4.59375 0.515625 -3.875 C 0.515625 -1.625 2.21875 -0.046875 4.59375 -0.046875 C 6.1875 -0.046875 7.328125 -0.75 8.1875 -2.28125 C 8.671875 -3.1875 9.140625 -4.515625 9.65625 -6.484375 Z M 10.984375 -11.65625 "/></g></g></g><g fill="#000000" fill-opacity="1"><g transform="translate(285.500301, 280.188618)"><g><path d="M 7.359375 -4.734375 C 8.359375 -5.265625 8.8125 -5.578125 9.328125 -6.0625 C 10.21875 -6.921875 10.796875 -8.28125 10.796875 -9.59375 C 10.796875 -11.9375 8.890625 -13.53125 6.09375 -13.53125 C 4.75 -13.53125 2.1875 -13.0625 1.796875 -12.75 C 1.484375 -12.484375 0.921875 -10.796875 0.921875 -10.15625 C 0.921875 -9.828125 1.0625 -9.671875 1.34375 -9.671875 C 1.65625 -9.671875 2.015625 -9.78125 2.59375 -10 C 2.28125 -8.8125 2.265625 -8.75 1.625 -6.59375 C 0.59375 -2.9375 0.140625 -1.1875 0.140625 -0.875 C 0.140625 -0.625 0.28125 -0.46875 0.671875 -0.328125 C 1.25 -0.109375 1.875 0.015625 2.515625 0.015625 C 2.953125 0.015625 3.125 -0.046875 3.265625 -0.203125 C 3.3125 -0.265625 3.421875 -0.671875 3.609375 -1.421875 L 4.21875 -3.9375 L 6.25 -0.25 C 7.09375 1.328125 7.09375 1.328125 7.40625 1.328125 C 7.71875 1.328125 8.34375 1.078125 8.953125 0.71875 C 9.546875 0.375 9.828125 0.046875 9.828125 -0.265625 C 9.828125 -0.515625 9.828125 -0.515625 9.328125 -1.375 Z M 3.515625 -10.1875 C 4.40625 -10.40625 5.015625 -10.484375 5.609375 -10.484375 C 6.671875 -10.484375 7.453125 -9.921875 7.453125 -9.140625 C 7.453125 -8.140625 6.3125 -7.09375 5.1875 -7.09375 L 5.078125 -7.09375 L 5.125 -7.265625 C 5.484375 -8.390625 5.609375 -8.828125 5.609375 -9.15625 C 5.609375 -9.625 5.328125 -9.8125 4.34375 -10.015625 C 4.140625 -10.0625 3.9375 -10.078125 3.75 -10.125 Z M 3.515625 -10.1875 "/></g></g></g><g fill="#000000" fill-opacity="1"><g transform="translate(296.351748, 280.188618)"><g><path d="M 6.015625 -10.0625 C 6.015625 -9.65625 6.125 -9.609375 7.1875 -9.609375 C 8.3125 -9.609375 8.71875 -9.78125 8.921875 -10.3125 C 9.140625 -10.875 9.34375 -11.984375 9.34375 -12.5625 C 9.34375 -12.875 9.265625 -13.078125 9.078125 -13.21875 C 8.78125 -13.46875 7.921875 -13.65625 7.0625 -13.65625 C 3.921875 -13.65625 1.34375 -11.75 1.34375 -9.421875 C 1.34375 -8.65625 1.578125 -8.125 2.46875 -6.671875 C 3.265625 -5.40625 3.59375 -4.65625 3.59375 -4.125 C 3.59375 -3.65625 3.21875 -3.359375 2.65625 -3.359375 C 2.546875 -3.359375 2.484375 -3.359375 2.34375 -3.390625 C 2.40625 -3.8125 2.421875 -4.015625 2.421875 -4.1875 C 2.421875 -4.40625 2.390625 -4.515625 2.3125 -4.578125 C 2.140625 -4.65625 1.453125 -4.734375 0.859375 -4.734375 C 0.265625 -4.734375 -0.0625 -4.59375 -0.21875 -4.265625 C -0.46875 -3.78125 -0.875 -1.890625 -0.875 -1.21875 C -0.875 -0.921875 -0.78125 -0.65625 -0.546875 -0.453125 C -0.25 -0.140625 0.6875 0.015625 2.015625 0.015625 C 3.34375 0.015625 4.421875 -0.25 5.21875 -0.78125 C 6.3125 -1.484375 7 -2.8125 7 -4.21875 C 7 -5.515625 6.59375 -6.625 5.53125 -8.265625 C 5.125 -8.921875 4.953125 -9.28125 4.953125 -9.59375 C 4.953125 -10.046875 5.265625 -10.265625 6.046875 -10.34375 Z M 6.015625 -10.0625 "/></g></g></g></svg>